<?xml version="1.0" standalone="no"?>
<!DOCTYPE svg PUBLIC "-//W3C//DTD SVG 20010904//EN"
 "http://www.w3.org/TR/2001/REC-SVG-20010904/DTD/svg10.dtd">
<svg version="1.0" xmlns="http://www.w3.org/2000/svg"
 width="300.000000pt" height="300.000000pt" viewBox="0 0 300.000000 300.000000"
 preserveAspectRatio="xMidYMid meet">
<metadata>
Created by potrace 1.10, written by Peter Selinger 2001-2011
</metadata>
<g transform="translate(0.000000,300.000000) scale(0.100000,-0.100000)"
fill="#000000" stroke="none">
<path d="M2594 2876 c-39 -17 -72 -59 -80 -100 -9 -51 47 -185 96 -230 22 -20
51 -38 65 -42 28 -7 102 -1 127 10 13 6 24 -3 48 -41 105 -166 70 -374 -94
-550 l-61 -65 -80 79 c-93 91 -200 152 -321 183 -69 18 -112 20 -392 20 l-314
0 -35 30 c-18 17 -41 30 -51 30 -39 1 -112 46 -182 114 -49 48 -91 79 -122 91
-27 10 -48 21 -48 25 0 4 20 38 45 76 25 39 45 81 45 97 0 60 -46 107 -106
107 -29 0 -148 -52 -159 -69 -11 -19 3 -59 24 -66 10 -3 42 6 72 20 87 40 98
32 50 -38 -38 -56 -96 -172 -111 -225 -10 -31 -17 -41 -29 -37 -9 2 -40 9 -70
15 -30 6 -56 12 -58 14 -6 6 28 92 52 128 30 46 32 74 5 88 -32 17 -53 4 -85
-49 l-30 -49 -38 59 c-21 32 -59 76 -84 99 -58 51 -159 101 -216 107 -39 5
-47 2 -75 -27 -46 -46 -43 -84 13 -174 25 -40 45 -75 45 -78 0 -3 -21 -13 -47
-23 -31 -12 -74 -43 -123 -90 -79 -77 -109 -96 -177 -114 -48 -13 -93 -60 -93
-98 0 -43 31 -94 101 -163 l68 -68 -17 -48 c-14 -42 -16 -101 -17 -384 0 -326
1 -336 22 -376 57 -108 206 -194 459 -269 7 -2 17 -37 24 -77 7 -40 22 -131
34 -202 l23 -128 -24 -24 c-51 -52 -68 -141 -36 -195 29 -49 65 -59 217 -59
156 0 194 10 226 62 18 30 20 50 20 251 l0 217 39 0 c39 0 39 -1 49 -48 6 -26
16 -81 23 -122 l12 -75 -33 -47 c-25 -35 -34 -61 -38 -101 -4 -51 -2 -57 31
-93 l35 -39 151 -3 c126 -3 156 -1 186 14 66 31 69 43 75 289 l5 220 81 3 82
3 21 -114 c25 -136 25 -141 5 -158 -48 -39 -68 -142 -39 -198 25 -50 67 -61
220 -61 155 0 191 10 225 65 18 30 20 49 20 249 l0 216 60 0 c69 0 60 15 89
-150 l19 -105 -25 -25 c-55 -54 -70 -146 -32 -194 38 -49 66 -56 214 -56 214
0 245 24 245 190 0 52 -4 122 -10 154 -5 33 -14 116 -20 185 -6 69 -16 131
-22 138 -15 19 -56 16 -66 -4 -9 -17 -2 -161 13 -295 l7 -58 -110 0 -110 0
-21 118 c-12 64 -27 128 -33 140 -26 51 -38 52 -451 52 -372 0 -385 -1 -410
-20 -35 -28 -47 -76 -47 -192 l0 -98 -114 0 -114 0 -10 47 c-6 27 -16 82 -23
123 -10 55 -20 82 -40 105 -26 29 -31 30 -131 36 -59 3 -126 13 -158 24 l-55
19 35 9 c183 47 344 116 414 178 39 34 45 37 106 36 112 -1 198 54 246 158 42
89 31 180 -32 271 -36 53 -37 55 -35 144 1 100 -12 146 -57 193 -29 31 -92 67
-116 67 -9 0 -20 9 -26 21 -10 18 -5 27 43 72 29 29 66 69 82 90 l27 37 142 0
143 0 -5 -29 c-7 -52 17 -191 44 -251 44 -98 107 -147 269 -205 62 -23 133
-89 170 -157 65 -123 161 -188 288 -196 65 -4 77 -7 73 -21 -3 -9 -8 -75 -11
-147 -6 -114 -5 -133 10 -147 9 -9 23 -17 30 -17 33 0 42 28 49 158 4 71 15
192 25 268 22 172 15 258 -32 383 l-33 88 55 59 c70 76 135 176 168 261 22 56
26 85 27 168 1 117 -14 171 -75 265 -31 49 -37 65 -29 80 14 27 12 95 -4 133
-19 44 -50 71 -127 107 -81 38 -124 45 -165 26z m-2076 -281 c95 -44 185 -148
216 -251 6 -19 1 -22 -55 -33 -33 -7 -66 -14 -73 -17 -6 -2 -22 27 -38 69 -15
41 -50 111 -78 157 -27 46 -50 87 -50 92 0 14 23 9 78 -17z m394 -376 c172
-37 321 -157 398 -321 45 -96 60 -182 60 -350 l0 -148 -52 40 c-102 77 -248
118 -458 127 -263 12 -494 -41 -605 -138 l-35 -31 0 159 c0 251 42 375 170
503 137 138 336 198 522 159z m138 -763 c103 -22 174 -53 224 -97 53 -47 71
-77 86 -144 28 -126 -70 -220 -321 -307 -90 -31 -101 -32 -244 -33 -144 0
-154 1 -244 33 -186 65 -300 144 -321 223 -11 41 0 110 24 158 47 89 180 154
372 180 90 13 341 5 424 -13z m-261 -711 c52 -41 132 -80 184 -90 l37 -7 0
-114 0 -114 -115 0 c-63 0 -115 2 -115 4 0 2 -13 82 -30 178 -16 95 -30 174
-30 176 0 11 33 -4 69 -33z m1371 -215 l0 -110 -115 0 c-111 0 -115 1 -120 23
-8 33 -35 181 -35 190 0 4 61 7 135 7 l135 0 0 -110z"/>
<path d="M385 1780 c-35 -14 -66 -57 -72 -98 -5 -34 -2 -42 16 -52 32 -17 60
-3 69 33 12 45 51 45 71 0 23 -52 75 -56 87 -6 20 78 -89 157 -171 123z"/>
<path d="M1092 1770 c-59 -36 -81 -129 -33 -145 29 -9 49 4 61 41 10 30 16 35
38 32 20 -2 28 -11 34 -35 9 -36 37 -50 68 -33 42 22 11 113 -49 145 -40 20
-79 19 -119 -5z"/>
<path d="M421 1332 c-91 -49 -97 -218 -9 -272 64 -39 151 -19 188 43 24 39 27
122 6 172 -29 67 -116 94 -185 57z"/>
<path d="M993 1330 c-41 -24 -60 -55 -68 -105 -9 -56 9 -115 45 -150 28 -26
38 -30 91 -30 57 0 63 2 95 37 32 35 34 42 34 105 0 50 -5 77 -20 100 -37 61
-116 81 -177 43z"/>
<path d="M1915 1376 c-62 -28 -105 -94 -105 -163 0 -73 66 -156 136 -169 19
-3 37 -12 39 -18 1 -6 8 -30 14 -54 50 -184 317 -204 407 -30 72 139 -41 318
-200 318 -42 0 -46 2 -68 42 -42 76 -143 110 -223 74z"/>
</g>
</svg>
