<?xml version="1.0" standalone="no"?>
<!DOCTYPE svg PUBLIC "-//W3C//DTD SVG 20010904//EN"
 "http://www.w3.org/TR/2001/REC-SVG-20010904/DTD/svg10.dtd">
<svg version="1.0" xmlns="http://www.w3.org/2000/svg"
 width="900.000000pt" height="900.000000pt" viewBox="0 0 900.000000 900.000000"
 preserveAspectRatio="xMidYMid meet">
<metadata>
Created by potrace 1.10, written by Peter Selinger 2001-2011
</metadata>
<g transform="translate(0.000000,900.000000) scale(0.100000,-0.100000)"
fill="#000000" stroke="none">
<path d="M4322 8575 c-66 -25 -206 -93 -257 -126 -16 -10 -37 -22 -45 -26 -8
-4 -46 -25 -85 -48 -38 -22 -77 -44 -85 -48 -8 -4 -28 -16 -45 -27 -16 -11
-37 -23 -45 -27 -8 -4 -46 -25 -85 -48 -38 -22 -77 -44 -85 -48 -8 -4 -28 -16
-45 -27 -16 -11 -37 -23 -45 -27 -8 -4 -46 -25 -85 -48 -38 -22 -77 -44 -85
-48 -8 -4 -28 -16 -45 -27 -16 -11 -37 -23 -45 -27 -8 -4 -46 -25 -85 -48 -38
-22 -77 -44 -85 -48 -8 -4 -28 -16 -45 -27 -16 -11 -37 -23 -45 -27 -8 -4 -58
-32 -110 -63 -52 -31 -102 -59 -110 -63 -8 -4 -28 -16 -45 -27 -16 -11 -43
-26 -60 -34 -16 -8 -52 -29 -80 -45 -27 -17 -59 -35 -70 -41 -11 -6 -33 -19
-50 -30 -16 -11 -37 -23 -45 -27 -18 -8 -159 -89 -180 -103 -8 -6 -22 -13 -30
-17 -8 -4 -58 -32 -110 -63 -52 -31 -102 -59 -110 -63 -8 -4 -28 -16 -45 -27
-16 -11 -39 -24 -51 -29 -11 -5 -50 -27 -85 -48 -35 -22 -71 -42 -79 -46 -8
-4 -28 -16 -45 -27 -16 -11 -39 -24 -50 -30 -11 -5 -47 -26 -80 -45 -33 -19
-69 -39 -80 -45 -11 -6 -33 -19 -50 -30 -16 -11 -37 -23 -45 -27 -8 -4 -64
-36 -124 -72 -59 -36 -120 -72 -134 -80 -42 -23 -166 -153 -191 -201 -12 -25
-33 -74 -44 -110 l-22 -65 0 -1875 c0 -1803 1 -1877 19 -1930 48 -142 94 -207
211 -295 63 -47 281 -183 335 -208 8 -4 29 -16 45 -26 17 -11 53 -32 80 -47
89 -49 100 -55 130 -74 17 -11 37 -23 45 -27 16 -8 206 -118 230 -133 8 -6 22
-13 30 -17 8 -4 58 -32 110 -63 52 -31 102 -59 110 -63 8 -4 29 -16 45 -27 17
-11 37 -23 45 -27 8 -4 47 -26 85 -48 39 -23 77 -44 85 -48 8 -4 29 -16 45
-27 31 -20 51 -31 125 -72 44 -23 105 -60 145 -86 11 -6 27 -15 35 -19 8 -4
47 -26 85 -48 39 -23 77 -44 85 -48 8 -4 29 -16 45 -27 17 -11 37 -23 45 -27
8 -4 47 -26 85 -48 39 -23 77 -44 85 -48 8 -4 29 -16 45 -27 17 -11 37 -23 45
-27 8 -4 58 -32 110 -63 52 -31 102 -59 110 -63 8 -4 29 -16 45 -27 17 -11 37
-23 45 -27 18 -8 158 -89 180 -103 8 -6 24 -15 35 -20 11 -6 43 -24 70 -41 28
-16 64 -37 80 -45 17 -8 44 -23 60 -34 50 -32 206 -107 270 -129 83 -29 227
-29 310 0 63 22 218 96 270 130 17 10 37 22 45 26 8 4 47 25 85 48 39 22 77
44 85 48 8 4 29 16 45 27 17 11 37 23 45 27 8 4 47 25 85 48 39 22 77 44 85
48 8 4 29 16 45 27 17 11 37 23 45 27 8 4 47 25 85 48 39 22 77 44 85 48 8 4
29 16 45 27 17 11 37 23 45 27 8 4 47 25 85 48 39 22 77 44 85 48 8 4 29 16
45 27 17 11 37 23 45 27 17 8 158 89 180 103 8 6 24 15 35 20 11 6 34 19 50
30 17 11 44 26 60 34 17 8 53 29 80 45 28 17 59 35 70 41 11 6 34 19 50 29 17
11 53 32 80 47 89 49 100 55 130 74 17 11 37 23 45 27 8 4 58 32 110 63 52 31
102 59 110 63 8 4 29 16 45 27 17 11 37 23 45 27 18 8 158 89 180 103 8 6 24
15 35 20 11 6 43 24 70 41 28 16 64 37 80 45 17 8 44 23 60 34 17 11 37 23 45
27 37 18 241 141 300 181 139 95 201 178 247 327 17 57 18 149 18 1925 0 1776
-1 1868 -18 1925 -40 130 -96 211 -204 293 -80 59 -196 135 -236 153 -12 5
-35 18 -52 29 -16 11 -37 23 -45 27 -8 4 -58 32 -110 63 -52 31 -102 59 -110
63 -8 4 -28 16 -45 27 -16 11 -37 23 -45 27 -8 4 -46 26 -85 48 -38 23 -77 44
-85 48 -8 4 -28 16 -45 27 -16 11 -37 23 -45 27 -8 4 -46 26 -85 48 -38 23
-77 44 -85 48 -8 4 -28 16 -45 27 -16 11 -37 23 -45 27 -8 4 -46 26 -85 48
-38 23 -77 44 -85 48 -8 4 -28 16 -45 27 -16 11 -37 23 -45 27 -8 4 -44 24
-79 46 -35 21 -74 43 -85 48 -12 5 -34 18 -51 29 -16 11 -37 23 -45 27 -8 4
-58 32 -110 63 -52 31 -102 59 -110 63 -8 4 -28 16 -45 26 -16 11 -52 32 -80
47 -89 49 -100 55 -130 74 -16 11 -37 23 -45 27 -16 8 -206 118 -230 133 -8 6
-22 13 -30 17 -8 4 -58 32 -110 63 -52 31 -102 59 -110 63 -8 4 -28 16 -45 27
-16 11 -37 23 -45 27 -8 4 -46 26 -85 48 -38 23 -77 44 -85 48 -8 4 -28 16
-45 26 -52 34 -207 108 -270 130 -86 30 -236 28 -323 -4z m314 -201 c57 -25
165 -79 205 -103 19 -12 41 -24 49 -28 8 -4 58 -32 110 -63 52 -31 102 -59
110 -63 8 -4 29 -16 45 -27 17 -11 37 -23 45 -27 8 -4 47 -25 85 -48 39 -22
77 -44 85 -48 8 -4 29 -16 45 -27 17 -11 39 -24 50 -30 11 -5 47 -26 80 -45
33 -19 69 -39 80 -45 11 -6 34 -19 50 -30 17 -11 37 -23 45 -27 8 -4 47 -26
85 -48 39 -23 77 -44 85 -48 8 -4 29 -16 45 -27 17 -11 37 -23 45 -27 8 -4 47
-25 85 -48 39 -22 77 -44 85 -48 8 -4 29 -16 45 -27 17 -11 37 -23 45 -27 8
-4 47 -26 85 -48 39 -23 77 -44 85 -48 8 -4 29 -16 45 -27 17 -11 39 -24 50
-30 11 -6 36 -20 55 -31 19 -12 55 -32 80 -46 25 -13 59 -33 75 -44 17 -10 37
-22 45 -26 8 -4 47 -26 85 -48 39 -23 77 -44 85 -48 8 -4 29 -16 45 -27 17
-11 37 -23 45 -27 8 -4 58 -32 110 -63 52 -31 102 -59 110 -63 8 -4 29 -16 45
-27 17 -11 37 -23 45 -27 8 -4 47 -25 85 -48 39 -22 77 -44 85 -48 8 -4 29
-16 45 -27 17 -11 39 -24 50 -29 11 -5 37 -21 58 -35 21 -14 40 -26 44 -26 9
0 87 -63 129 -106 51 -52 78 -107 98 -204 14 -65 16 -149 14 -610 l-3 -535
-3445 0 -3445 0 -3 540 c-2 481 -1 548 14 615 22 96 47 143 106 202 42 41 181
140 228 161 8 4 29 16 45 27 17 11 39 24 50 30 11 6 29 16 40 23 11 7 52 30
90 52 39 22 79 45 90 52 11 7 27 16 35 20 8 4 58 32 110 63 52 31 102 59 110
63 8 4 29 16 45 27 17 11 37 23 45 27 8 4 47 25 85 48 39 22 77 44 85 48 8 4
29 16 45 27 17 11 37 23 45 27 8 4 58 32 110 63 52 31 102 59 110 63 8 4 29
16 45 27 17 11 44 26 60 34 17 8 53 29 80 45 28 17 59 35 70 41 11 5 27 14 35
20 22 14 162 95 180 103 8 4 29 16 45 27 17 11 37 23 45 27 17 8 158 89 180
103 8 6 24 15 35 20 11 6 34 19 50 30 17 11 39 24 51 29 19 8 136 76 174 101
8 6 24 15 35 20 11 6 43 24 70 41 28 16 64 37 80 45 17 8 44 23 60 34 17 11
37 23 45 27 8 4 58 32 110 63 52 31 102 59 110 63 8 4 30 16 49 28 34 20 148
78 206 104 45 21 72 24 166 20 51 -2 101 -10 125 -21z m-361 -3334 c3 -5 30
-10 60 -10 47 0 56 -3 79 -31 33 -39 39 -65 27 -114 -40 -163 -91 -220 -196
-220 l-60 0 -13 -40 c-22 -68 -56 -90 -102 -65 -13 7 -21 7 -25 0 -10 -16 -53
-12 -95 10 l-39 20 -36 -20 c-20 -11 -45 -20 -56 -20 -34 0 -77 31 -94 69 -15
35 -15 39 10 106 15 39 30 84 35 100 25 90 69 184 93 199 39 25 74 -45 49 -98
-6 -12 -13 -30 -16 -41 -6 -26 -34 -104 -46 -130 -25 -56 -32 -97 -19 -106 8
-5 16 -9 19 -9 20 0 70 70 70 97 0 10 5 24 11 30 6 6 14 26 19 44 5 19 18 59
30 89 12 30 24 64 27 75 9 32 34 55 60 55 51 0 49 -81 -6 -205 -5 -11 -12 -29
-14 -40 -3 -11 -15 -45 -26 -74 -16 -42 -18 -57 -8 -63 36 -22 100 90 147 257
17 60 37 105 55 125 19 21 50 27 60 10z m513 -40 l18 -29 18 29 c17 30 18 30
104 30 93 -1 109 -7 145 -62 22 -35 21 -59 -4 -133 -46 -133 -49 -145 -34
-145 7 0 16 8 19 18 10 29 52 48 71 32 26 -21 18 -67 -17 -105 -27 -28 -43
-36 -83 -41 -27 -3 -74 -17 -104 -31 -48 -23 -59 -25 -100 -15 -31 7 -50 7
-58 0 -16 -13 -51 -1 -64 23 -13 25 2 97 42 194 27 65 50 148 45 161 -4 11
-19 14 -58 12 l-52 -3 -18 -55 c-10 -30 -23 -64 -28 -75 -5 -11 -19 -51 -31
-90 -12 -38 -25 -74 -29 -80 -4 -5 -10 -21 -13 -35 -4 -14 -15 -31 -27 -38
-17 -10 -25 -9 -46 5 -34 22 -29 57 23 180 7 17 13 36 13 43 0 6 6 23 14 38 7
15 16 44 19 64 5 35 4 38 -21 45 -37 9 -72 33 -72 49 0 31 52 43 183 44 l127
0 18 -30z m-3480 -492 c7 -7 35 -13 62 -14 54 -1 81 -18 107 -67 13 -25 13
-34 0 -72 -9 -24 -13 -46 -10 -49 3 -3 18 4 33 16 36 26 122 28 149 4 18 -16
21 -15 65 14 25 17 46 37 46 44 0 8 9 34 20 59 21 48 48 63 77 42 15 -11 16
-19 6 -66 -9 -44 -8 -57 3 -70 8 -8 14 -27 14 -41 0 -21 -6 -28 -29 -33 -38
-8 -43 -16 -66 -93 -16 -54 -17 -65 -4 -72 9 -6 21 -4 34 4 26 17 64 93 64
131 1 22 11 38 37 60 66 55 140 54 179 -4 14 -19 25 -44 25 -54 0 -10 6 -17
13 -15 7 3 13 28 15 66 2 49 7 64 22 72 28 15 67 2 74 -23 3 -12 24 -33 46
-46 26 -16 41 -34 45 -53 7 -31 -2 -83 -18 -110 -6 -9 -8 -20 -4 -24 10 -10
36 25 43 58 4 15 13 33 20 39 8 6 14 19 14 28 0 9 8 35 17 58 17 41 18 42 73
45 90 5 107 0 131 -38 l21 -35 -27 -75 c-14 -42 -24 -78 -21 -81 9 -10 36 6
42 24 3 10 10 27 14 38 5 11 19 45 31 75 34 84 42 89 137 94 124 6 130 -6 82
-143 -16 -47 -27 -87 -24 -90 8 -9 38 14 51 40 23 46 43 97 43 108 0 6 4 19
10 29 12 21 39 97 47 132 11 45 33 70 64 70 24 0 29 -5 34 -34 4 -19 2 -43 -4
-54 -17 -33 -13 -49 14 -56 28 -7 65 -59 65 -91 0 -11 -6 -29 -14 -40 -14 -22
-30 -105 -19 -105 15 0 43 35 43 55 0 11 4 25 8 30 5 6 16 31 26 56 27 74 49
89 145 94 79 4 82 3 93 -21 9 -20 6 -39 -16 -107 -15 -45 -30 -88 -33 -94 -3
-8 3 -13 15 -13 14 0 26 14 41 49 11 27 21 56 21 63 0 7 7 22 15 32 8 11 15
27 15 36 0 9 6 24 13 34 19 26 150 26 178 0 27 -24 35 -80 17 -118 -23 -47
-32 -96 -18 -96 14 0 49 40 50 56 0 6 11 21 25 34 24 23 25 23 45 5 24 -22 25
-36 4 -78 -44 -86 -125 -126 -186 -90 -49 28 -56 67 -28 149 15 44 19 69 12
76 -15 15 -38 -26 -57 -102 -18 -68 -41 -120 -59 -132 -16 -11 -105 -8 -143 4
-23 7 -43 6 -67 -2 -24 -8 -46 -8 -70 -1 -24 6 -48 6 -72 -1 -63 -17 -124 26
-124 87 0 40 -25 29 -40 -17 -21 -67 -34 -76 -98 -76 -32 0 -71 5 -89 10 -22
6 -45 5 -71 -3 -29 -8 -48 -9 -71 -1 -21 7 -42 7 -67 1 -47 -13 -77 -5 -109
29 -28 30 -31 57 -11 104 22 54 36 101 31 106 -11 11 -43 -31 -54 -71 -51
-169 -57 -177 -129 -177 -49 0 -63 4 -94 30 -20 17 -39 43 -43 60 l-6 29 -30
-34 c-66 -75 -154 -100 -242 -70 -44 15 -50 15 -97 -2 -48 -17 -52 -17 -100 0
-34 12 -55 15 -67 8 -33 -17 -110 -23 -146 -12 -54 18 -87 60 -94 120 l-6 52
-26 -24 c-51 -47 -101 -60 -141 -34 -24 14 -34 4 -50 -54 -15 -53 -40 -73 -74
-58 -21 10 -26 19 -26 51 0 21 4 46 10 56 10 18 35 86 50 137 22 74 67 192 84
218 20 29 44 35 64 15z m3910 0 c6 -6 37 -13 68 -14 76 -4 105 -31 109 -100 2
-40 5 -49 20 -47 38 3 65 -15 65 -44 0 -29 -30 -125 -49 -162 -8 -14 -8 -22 0
-26 14 -9 49 24 49 46 0 10 4 20 9 23 5 3 12 18 15 33 4 16 13 42 21 58 7 17
16 38 19 48 8 25 62 23 76 -3 9 -17 5 -39 -19 -108 -35 -100 -36 -102 -18
-102 6 0 21 18 31 40 10 21 32 49 47 61 16 12 29 30 29 39 0 10 7 23 15 30 8
7 15 17 15 23 0 17 42 57 60 57 20 0 60 -36 60 -53 0 -7 -5 -18 -12 -25 -14
-14 2 -69 35 -116 l20 -29 23 44 c13 24 23 53 24 64 0 12 4 25 9 30 5 6 14 26
19 45 16 55 33 102 50 138 12 25 21 32 43 32 36 0 47 -34 30 -90 -15 -50 -15
-47 19 -55 52 -11 75 -81 46 -141 -17 -36 -28 -94 -18 -94 17 0 39 27 54 65
60 153 73 167 149 167 47 0 56 -3 81 -31 21 -23 28 -42 28 -71 0 -22 4 -40 8
-40 13 0 39 31 51 60 24 54 49 85 75 95 24 8 31 6 48 -15 14 -18 18 -33 13
-57 -7 -38 23 -133 42 -133 18 0 45 54 60 120 11 45 33 70 63 70 40 0 47 -40
21 -116 -12 -32 -21 -70 -21 -83 0 -40 23 -7 45 64 11 33 25 67 31 75 7 8 14
24 16 35 4 25 42 32 75 14 18 -10 26 -10 35 -1 17 17 73 15 88 -3 12 -14 10
-51 -5 -120 l-7 -30 21 25 c11 14 23 36 26 50 3 14 18 40 33 58 27 32 31 33
109 36 44 2 86 0 93 -4 19 -12 14 -61 -14 -144 -15 -43 -25 -80 -22 -83 9 -10
36 6 42 24 4 10 12 32 20 50 8 17 14 37 14 45 0 7 7 22 15 32 8 11 15 27 15
37 0 30 28 42 100 42 61 0 72 -3 90 -24 25 -31 25 -80 0 -148 -12 -29 -18 -56
-15 -59 10 -10 39 13 55 44 50 95 118 59 71 -39 -50 -104 -169 -126 -212 -40
-17 33 -12 72 19 146 12 28 9 47 -6 47 -14 0 -39 -54 -52 -110 -16 -70 -45
-127 -67 -134 -10 -3 -47 -3 -83 0 -79 6 -93 6 -148 2 -38 -2 -47 1 -71 28
-42 46 -56 48 -98 9 -42 -38 -94 -52 -137 -35 -20 7 -40 7 -68 -1 -29 -7 -49
-7 -71 1 -25 8 -47 7 -102 -6 -67 -16 -73 -16 -135 3 -58 17 -71 17 -115 6
-51 -14 -124 -10 -158 8 -12 7 -32 4 -66 -7 -40 -15 -53 -16 -78 -5 -32 13
-63 57 -63 91 0 35 -23 18 -41 -30 -20 -55 -43 -72 -86 -64 -17 3 -54 0 -80
-6 -41 -11 -57 -10 -106 4 -46 13 -65 14 -100 5 -35 -8 -51 -8 -78 4 -29 12
-39 12 -68 0 -41 -17 -82 -9 -111 22 -23 24 -24 47 -4 145 l6 35 -24 -35 c-41
-60 -100 -79 -175 -55 -18 6 -23 3 -23 -9 0 -10 -9 -37 -20 -62 -17 -37 -25
-44 -50 -44 -38 0 -64 34 -48 64 6 11 15 34 19 51 7 31 25 84 40 120 15 37 40
110 48 140 15 57 53 115 76 115 6 0 16 -5 23 -12z m-910 -46 c2 -12 -20 -88
-48 -169 -68 -193 -65 -183 -46 -183 16 0 66 96 66 126 0 16 44 89 59 98 6 4
47 8 91 10 75 3 82 2 96 -19 13 -21 12 -31 -16 -114 -35 -106 -34 -101 -16
-101 17 0 43 38 52 76 4 16 20 57 35 91 l27 61 59 4 c83 6 105 -2 126 -44 18
-36 18 -38 -7 -109 -14 -40 -23 -75 -20 -78 8 -8 38 14 50 38 6 12 21 33 33
47 17 20 25 23 41 14 27 -15 25 -54 -5 -105 -31 -54 -68 -78 -122 -79 -83 -2
-122 78 -79 159 16 31 22 85 8 85 -13 0 -40 -61 -61 -139 -29 -105 -39 -114
-126 -107 -38 4 -86 6 -105 5 -19 0 -50 0 -67 0 -60 0 -103 0 -130 0 -16 0
-44 0 -63 1 -19 0 -55 0 -79 -2 -37 -2 -47 2 -68 27 -22 25 -25 35 -20 76 3
27 13 61 21 78 9 16 16 38 16 48 0 10 13 34 28 52 25 31 33 34 86 35 l58 1 15
40 c8 22 17 50 20 63 12 51 84 62 91 14z m-2096 -499 c31 -28 27 -54 -37 -228
-50 -134 -52 -145 -28 -145 25 0 48 28 73 92 12 29 28 68 36 86 8 18 14 40 14
50 0 9 7 26 15 36 8 11 15 30 15 42 0 26 45 84 66 84 7 0 21 -12 31 -26 16
-25 16 -31 1 -83 -19 -70 -65 -200 -78 -223 -16 -28 -12 -58 7 -58 21 0 63 39
63 59 0 9 7 25 15 35 8 11 15 28 15 38 0 10 4 26 10 36 12 21 39 97 47 132 8
34 32 69 55 81 15 8 24 7 39 -7 22 -20 24 -63 5 -114 -51 -134 -78 -208 -83
-225 -22 -75 -124 -142 -199 -130 -24 3 -46 10 -49 16 -9 14 -53 11 -80 -7
-49 -32 -124 4 -138 66 -8 31 9 98 44 185 20 47 41 112 46 138 5 26 53 87 69
87 4 0 16 -7 26 -17z m646 9 c25 -17 24 -74 -3 -147 -48 -130 -75 -217 -69
-227 11 -17 42 22 59 75 42 129 64 148 169 152 39 1 77 -2 84 -8 19 -15 14
-63 -14 -145 -26 -76 -26 -89 0 -79 15 6 56 85 56 109 0 7 7 22 15 32 8 11 15
27 15 36 0 9 10 26 23 38 21 20 25 21 45 6 28 -20 28 -44 -3 -134 -14 -40 -25
-75 -25 -77 0 -2 9 -3 20 -3 13 0 22 9 26 28 3 15 10 36 14 47 5 11 20 47 33
79 29 69 57 88 82 53 20 -29 19 -41 -10 -127 -14 -40 -22 -76 -19 -79 9 -9 43
41 50 73 12 54 53 122 81 136 15 7 58 14 96 15 60 1 69 -1 82 -21 14 -21 12
-31 -16 -115 -17 -50 -28 -93 -25 -96 11 -11 37 8 47 34 6 15 15 37 20 48 31
76 44 108 65 173 37 112 67 147 99 116 17 -18 20 -76 5 -105 -9 -16 -7 -21 13
-28 32 -12 77 -67 77 -94 0 -12 -9 -47 -20 -77 -24 -65 -24 -70 -5 -70 8 0 26
20 40 44 39 67 85 68 85 1 0 -42 -41 -98 -90 -124 -58 -30 -78 -27 -122 19
-40 42 -45 58 -28 88 18 32 39 107 32 114 -18 18 -41 -27 -77 -147 -27 -89
-34 -94 -120 -91 -42 1 -79 7 -88 15 -13 10 -20 10 -39 -3 -26 -19 -57 -20
-90 -5 -19 8 -33 5 -77 -18 -44 -23 -57 -36 -70 -71 -9 -23 -31 -56 -48 -73
-25 -26 -39 -31 -82 -32 -48 -2 -55 1 -83 32 -26 29 -29 40 -25 73 3 22 13 48
23 59 16 18 16 19 -5 19 -13 0 -38 7 -57 16 -31 15 -35 15 -50 -1 -13 -12 -26
-15 -53 -10 -47 8 -79 8 -119 0 -22 -5 -39 -2 -55 8 -20 13 -26 13 -51 0 -40
-21 -89 -9 -121 29 -24 28 -26 38 -21 79 4 26 13 60 21 76 8 15 15 33 15 39 0
5 9 29 20 51 23 48 54 61 75 30 20 -29 19 -39 -11 -130 -15 -42 -24 -80 -21
-83 12 -12 37 6 48 33 22 53 28 68 48 117 12 27 21 59 21 72 0 12 4 26 10 29
5 3 14 23 20 44 10 37 44 91 58 91 4 0 13 -4 20 -8z m1580 -22 c1 -14 -9 -56
-23 -95 -15 -38 -31 -86 -37 -105 -5 -19 -14 -39 -19 -45 -5 -5 -9 -16 -9 -25
0 -8 -7 -28 -15 -44 -9 -16 -14 -30 -13 -31 2 -1 13 -8 26 -14 26 -14 30 -62
7 -81 -9 -8 -48 -13 -101 -14 -79 -1 -87 1 -105 23 -17 21 -18 26 -6 45 8 12
27 23 41 26 28 5 35 18 83 145 8 22 21 55 29 73 13 30 12 35 -7 61 -31 43 -19
65 49 89 74 26 96 24 100 -8z m491 12 c19 -10 43 -34 55 -54 20 -36 20 -37 2
-57 -25 -27 -38 -26 -69 5 -28 27 -60 29 -65 3 -1 -9 17 -42 41 -75 24 -33 47
-71 50 -84 4 -14 11 -31 16 -39 13 -20 37 0 44 37 10 51 35 107 54 119 17 11
23 10 44 -13 l24 -26 -32 -89 c-20 -58 -27 -91 -20 -96 12 -7 47 32 47 53 0 8
4 22 10 32 5 9 19 40 31 69 11 28 30 60 41 70 19 17 20 17 39 -6 25 -31 24
-42 -8 -133 -15 -42 -24 -80 -20 -84 10 -11 57 36 57 57 0 10 4 20 9 24 5 3
13 20 17 37 3 18 10 39 15 48 11 19 38 94 48 136 10 39 40 84 56 84 32 0 50
-65 32 -116 -6 -17 -1 -26 27 -45 54 -37 72 -94 41 -135 -15 -20 -21 -94 -7
-94 15 0 32 24 32 46 0 12 7 37 16 56 9 18 25 49 34 68 25 50 72 76 115 63 21
-7 37 -7 43 -1 20 20 56 4 65 -29 8 -25 4 -47 -17 -105 -30 -86 -31 -98 -11
-98 15 0 55 76 55 104 0 8 6 27 14 43 28 57 46 104 46 123 0 10 4 21 9 25 5 3
12 18 16 34 3 16 15 37 26 47 19 17 21 17 45 -7 24 -24 24 -27 12 -74 -11 -40
-11 -49 1 -53 7 -2 27 -17 44 -32 28 -25 31 -34 31 -84 0 -55 11 -74 22 -38 3
9 12 29 20 44 8 14 14 33 14 41 0 9 10 28 23 42 21 24 23 25 45 10 26 -19 29
-59 8 -120 -25 -74 -28 -95 -12 -95 13 0 56 85 56 113 0 8 7 20 15 27 8 7 15
20 15 29 0 10 10 27 23 39 21 20 25 21 45 6 29 -20 28 -43 -5 -136 -14 -43
-24 -80 -21 -83 14 -14 37 11 57 63 13 31 29 71 37 89 8 17 14 35 14 41 0 20
30 33 84 37 30 2 58 0 61 -6 8 -12 49 -11 79 3 21 9 33 8 66 -7 54 -24 69 -70
45 -135 -29 -78 -30 -92 -9 -88 13 2 31 34 61 108 49 123 68 142 102 106 l23
-25 -26 -81 c-14 -45 -26 -85 -26 -91 0 -19 39 -8 46 14 11 36 35 57 66 57 25
0 28 -3 27 -32 -1 -45 -27 -87 -78 -125 -47 -36 -81 -41 -124 -18 -26 13 -31
13 -50 0 -33 -23 -63 -18 -102 16 -28 25 -35 38 -35 68 0 21 7 52 16 69 16 33
16 71 -1 75 -5 1 -25 -44 -45 -100 -38 -108 -62 -145 -88 -136 -44 15 -53 58
-24 113 25 49 47 119 38 127 -14 14 -35 -25 -65 -121 -18 -55 -36 -106 -42
-112 -15 -18 -126 -15 -167 3 -30 14 -36 14 -66 -2 -29 -16 -38 -17 -64 -6
-17 7 -38 21 -48 32 -24 27 -48 24 -96 -11 -47 -34 -95 -39 -134 -14 -23 16
-27 16 -60 -2 -33 -18 -36 -18 -81 -2 -42 15 -49 15 -63 3 -21 -19 -61 -19
-85 -1 -17 12 -23 12 -47 0 -15 -8 -37 -14 -49 -14 -30 0 -89 62 -89 94 0 41
-25 31 -40 -16 -21 -68 -32 -76 -104 -76 -36 0 -75 6 -91 14 -35 18 -44 18
-66 -2 -40 -36 -115 10 -128 78 -5 24 -9 35 -10 26 -2 -27 -49 -75 -96 -99
-63 -31 -121 -21 -173 32 -42 41 -56 86 -41 127 13 35 60 27 77 -13 24 -55 29
-60 66 -63 46 -4 66 11 66 51 0 29 -34 97 -49 97 -4 0 -17 20 -29 44 -37 74
-26 130 35 170 46 30 77 32 122 8z m-2207 -26 c9 -14 10 -39 2 -60 -15 -38
-84 -2 -84 44 0 36 61 48 82 16z m4243 18 c39 -15 38 -94 -2 -94 -41 0 -69 60
-41 88 14 14 20 15 43 6z m973 -979 c4 -329 -15 -410 -120 -516 -42 -42 -180
-140 -228 -162 -8 -4 -28 -16 -45 -27 -16 -11 -39 -24 -50 -30 -11 -6 -29 -16
-40 -23 -11 -7 -52 -30 -90 -52 -39 -22 -79 -45 -90 -52 -11 -7 -27 -16 -35
-20 -8 -4 -58 -32 -110 -63 -52 -31 -102 -59 -110 -63 -8 -4 -28 -16 -45 -27
-16 -11 -37 -23 -45 -27 -8 -4 -46 -25 -85 -48 -38 -22 -77 -44 -85 -48 -8 -4
-28 -16 -45 -27 -16 -11 -37 -23 -45 -27 -8 -4 -58 -32 -110 -63 -52 -31 -102
-59 -110 -63 -8 -4 -28 -16 -45 -27 -16 -11 -43 -26 -60 -34 -16 -8 -52 -29
-80 -45 -27 -17 -59 -35 -70 -41 -11 -5 -27 -14 -35 -20 -22 -14 -162 -95
-180 -103 -8 -4 -28 -16 -45 -27 -16 -11 -37 -23 -45 -27 -8 -4 -58 -32 -110
-63 -52 -31 -102 -59 -110 -63 -8 -4 -28 -16 -45 -27 -16 -11 -37 -23 -45 -27
-8 -4 -46 -25 -85 -48 -38 -22 -77 -44 -85 -48 -8 -4 -28 -16 -45 -27 -16 -11
-37 -23 -45 -27 -8 -4 -46 -26 -85 -48 -38 -23 -77 -44 -85 -48 -8 -4 -22 -11
-30 -17 -22 -14 -212 -125 -230 -133 -8 -4 -28 -16 -45 -26 -16 -11 -64 -36
-105 -56 -41 -20 -90 -44 -109 -53 -51 -25 -221 -24 -281 2 -67 28 -181 85
-215 107 -16 10 -37 22 -45 26 -8 4 -46 26 -85 48 -38 23 -77 44 -85 48 -8 4
-28 16 -45 27 -16 11 -37 23 -45 27 -8 4 -46 25 -85 48 -38 22 -77 44 -85 48
-8 4 -28 16 -45 27 -16 11 -37 23 -45 27 -8 4 -46 26 -85 48 -38 23 -77 44
-85 48 -8 4 -28 16 -45 27 -16 11 -37 23 -45 27 -8 4 -46 26 -85 48 -38 23
-77 44 -85 48 -8 4 -28 16 -45 27 -16 11 -37 23 -45 27 -8 4 -46 26 -85 48
-38 23 -77 44 -85 48 -8 4 -28 16 -45 27 -16 11 -37 23 -45 27 -8 4 -44 24
-79 46 -35 21 -74 43 -85 48 -12 5 -34 18 -51 29 -16 11 -37 23 -45 27 -8 4
-58 32 -110 63 -52 31 -102 59 -110 63 -8 4 -28 16 -45 27 -16 11 -39 24 -50
30 -11 5 -47 26 -80 45 -33 19 -69 39 -80 45 -11 6 -33 19 -50 30 -16 11 -37
23 -45 27 -8 4 -46 26 -85 48 -38 23 -77 44 -85 48 -8 4 -28 16 -45 27 -16 11
-37 23 -45 27 -8 4 -46 25 -85 48 -38 22 -77 44 -85 48 -8 4 -28 16 -45 26
-16 11 -48 29 -70 41 -22 12 -59 35 -83 51 -24 16 -45 29 -48 29 -14 0 -125
94 -151 127 -44 60 -54 81 -74 165 -16 66 -19 119 -19 317 0 131 3 241 7 244
3 4 1555 6 3447 5 l3441 -3 3 -240z"/>
<path d="M5700 7392 c-30 -15 -62 -31 -70 -37 -8 -5 -51 -22 -95 -38 -68 -25
-102 -30 -230 -37 -82 -4 -161 -12 -175 -18 -14 -6 -32 -13 -40 -16 -8 -4 -28
-15 -45 -26 -43 -28 -115 -60 -134 -60 -8 0 -49 -7 -91 -15 -143 -27 -773 -76
-797 -62 -5 3 -96 10 -203 16 -107 6 -248 16 -313 23 -167 17 -199 5 -338
-127 -33 -32 -59 -116 -59 -196 0 -35 -7 -120 -16 -189 -9 -69 -17 -208 -18
-310 -2 -102 -6 -192 -10 -201 -5 -11 0 -24 15 -37 19 -18 20 -25 11 -52 -11
-30 -6 -90 7 -90 16 1 29 17 32 40 2 14 11 25 19 25 47 0 43 -346 -6 -492 -21
-63 -23 -76 -12 -110 10 -30 22 -42 58 -60 51 -25 112 -29 129 -9 14 17 4 119
-15 158 -18 35 -18 87 2 173 21 95 31 117 50 113 29 -6 53 -127 54 -269 0
-152 4 -159 96 -159 61 0 104 18 104 44 0 17 -24 70 -52 116 -24 40 -58 183
-58 248 0 55 26 106 92 179 54 59 88 111 88 135 1 7 9 24 20 36 17 21 26 23
77 20 32 -3 72 -10 88 -16 17 -6 75 -19 130 -28 121 -19 172 -39 206 -78 l26
-30 40 32 c30 24 51 32 80 32 22 0 62 7 89 15 27 8 60 15 72 15 13 0 37 7 53
15 72 37 86 43 117 50 59 12 109 -3 155 -50 46 -46 62 -85 73 -180 5 -40 17
-76 37 -108 l29 -48 -2 -152 c-2 -84 -2 -158 -1 -164 2 -23 79 -54 124 -51
l42 3 -2 44 c-2 41 -1 42 16 27 14 -13 34 -16 82 -14 l64 3 3 34 c2 23 -6 51
-27 90 -25 48 -31 72 -37 157 -5 81 -4 106 9 130 8 16 20 54 25 84 8 41 16 58
38 74 46 33 72 65 94 115 12 25 28 59 35 74 8 16 15 34 15 40 0 7 19 34 43 60
47 53 77 138 77 219 0 104 77 281 144 330 36 26 45 28 133 28 62 0 103 5 122
14 16 9 55 14 94 14 77 0 92 8 118 67 30 64 25 79 -38 128 -67 52 -102 89
-167 174 -30 40 -64 71 -96 89 -27 15 -57 38 -65 50 -20 31 -46 30 -115 -4z
m-2561 -1109 c1 -18 -3 -33 -8 -33 -13 0 -22 47 -15 77 7 25 8 25 15 8 4 -11
8 -35 8 -52z m1980 -646 c1 -143 -8 -157 -40 -67 -21 56 -20 120 0 157 5 10
13 32 17 48 12 57 23 -3 23 -138z"/>
<path d="M1950 6230 c-14 -4 -38 -11 -54 -15 -35 -7 -146 -119 -146 -146 0
-27 39 -49 86 -49 36 0 47 -6 78 -40 38 -42 42 -54 50 -143 2 -32 12 -69 20
-82 22 -33 20 -46 -13 -78 -16 -15 -31 -40 -34 -55 -3 -15 -22 -52 -42 -82
-49 -75 -75 -126 -68 -134 13 -13 40 -5 60 17 12 12 38 55 59 95 25 46 49 79
66 88 40 21 58 18 58 -9 0 -24 124 -177 143 -177 6 0 18 -7 28 -16 24 -21 49
-11 49 19 0 23 -27 57 -45 57 -17 0 -95 72 -95 89 0 23 53 61 86 61 14 0 38
-6 52 -14 102 -52 141 -57 232 -25 84 29 128 10 171 -73 18 -36 18 -38 0 -81
-11 -24 -33 -60 -51 -80 -35 -40 -33 -57 9 -57 29 0 71 35 71 61 1 8 12 32 25
54 14 22 29 50 35 63 15 35 30 17 30 -36 0 -31 -8 -61 -24 -89 -13 -23 -21
-44 -18 -47 3 -3 19 -6 36 -6 52 0 63 23 71 153 l7 116 -41 40 -40 39 6 104
c3 70 10 107 19 114 23 18 17 27 -49 75 -79 58 -147 74 -248 58 -99 -15 -191
-6 -285 27 -71 25 -92 39 -161 104 -43 41 -82 83 -86 93 -7 19 -10 19 -47 7z"/>
<path d="M6654 6197 c-17 -17 -46 -46 -65 -63 -41 -38 -99 -119 -99 -138 0
-33 29 -46 90 -39 l58 6 25 -79 c14 -44 37 -99 51 -124 14 -25 26 -54 26 -65
0 -11 12 -32 28 -46 37 -34 48 -55 65 -130 25 -104 27 -136 11 -150 -18 -15
-18 -59 -1 -59 19 0 34 35 44 103 4 32 13 59 18 60 14 3 18 -118 5 -143 -9
-16 -8 -22 6 -27 32 -12 39 19 38 148 -2 74 2 129 8 137 15 17 63 15 101 -5
22 -11 58 -17 113 -17 77 -1 84 -3 123 -34 33 -27 41 -39 41 -66 0 -19 -7 -39
-15 -46 -8 -7 -15 -20 -15 -30 0 -10 -7 -23 -15 -30 -16 -13 -21 -60 -7 -60
24 0 52 49 52 88 0 23 5 42 10 42 6 0 15 11 20 25 5 14 14 25 20 25 15 0 12
-81 -5 -114 -17 -32 -20 -66 -5 -66 24 0 50 41 50 80 0 22 7 57 15 78 16 38
15 40 -15 89 l-32 51 31 53 c24 43 31 70 35 133 3 44 9 82 14 85 23 15 50 111
31 111 -6 0 -22 -13 -36 -30 -29 -35 -56 -38 -98 -10 -37 25 -175 28 -215 5
-16 -9 -53 -14 -100 -14 -47 0 -84 5 -100 14 -14 8 -47 14 -73 15 -54 0 -91
16 -125 53 -28 30 -25 61 6 65 26 4 29 20 5 29 -26 9 -53 34 -53 49 0 7 10 14
22 16 32 5 35 28 4 28 -15 0 -29 7 -32 15 -9 23 -26 18 -60 -18z m56 -12 c0
-8 -4 -15 -9 -15 -13 0 -22 16 -14 24 11 11 23 6 23 -9z"/>
<path d="M1433 5986 c-26 -27 -46 -60 -53 -87 -12 -44 -51 -88 -80 -89 -38 -1
-102 -84 -120 -156 -10 -39 -10 -64 -2 -113 9 -52 9 -68 -3 -92 -24 -45 -18
-75 21 -114 l35 -36 91 3 c62 2 93 7 96 16 3 9 -14 12 -62 12 -70 0 -104 9
-129 34 -33 33 -11 46 77 46 44 0 111 3 149 7 61 5 67 8 67 28 0 13 -7 29 -16
36 -13 10 -15 28 -12 89 3 62 8 82 31 115 23 34 27 50 27 107 0 55 4 72 20 88
28 28 25 45 -16 76 -20 16 -40 38 -45 51 -12 33 -28 28 -76 -21z"/>
<path d="M5821 5957 c-12 -15 -15 -36 -13 -80 2 -19 9 -30 27 -37 21 -8 23
-13 16 -32 -15 -39 -31 -117 -31 -148 0 -48 21 -80 69 -105 26 -13 64 -39 86
-58 l40 -35 -27 -11 c-16 -6 -28 -13 -28 -16 0 -9 63 -65 72 -65 4 0 14 15 21
33 16 37 29 49 77 67 45 17 70 39 70 61 0 9 16 30 35 46 99 79 115 96 115 119
0 27 -20 31 -64 14 -17 -6 -55 -6 -112 2 -74 9 -96 17 -145 49 -32 21 -61 49
-65 61 -9 31 -104 148 -120 148 -6 0 -17 -6 -23 -13z"/>
<path d="M4276 4918 c-9 -12 -16 -29 -16 -38 0 -8 -7 -28 -15 -44 -17 -32 -12
-61 12 -70 22 -9 40 9 64 63 25 58 22 105 -8 109 -13 2 -27 -5 -37 -20z"/>
<path d="M4917 4917 c-14 -12 -34 -49 -46 -81 -21 -57 -21 -60 -4 -77 10 -9
27 -20 39 -23 19 -6 24 1 43 57 37 112 21 174 -32 124z"/>
<path d="M4837 4664 c-13 -13 -7 -24 14 -24 11 0 19 5 17 12 -5 14 -22 21 -31
12z"/>
<path d="M1308 4383 c-23 -39 -40 -110 -33 -134 20 -61 100 42 93 120 -4 47
-36 55 -60 14z"/>
<path d="M1680 4266 c0 -9 7 -16 16 -16 9 0 14 5 12 12 -6 18 -28 21 -28 4z"/>
<path d="M1556 4254 c-8 -21 -1 -28 19 -20 9 3 15 11 13 18 -7 19 -25 20 -32
2z"/>
<path d="M1992 4258 c-18 -18 -15 -28 8 -28 13 0 20 7 20 20 0 23 -10 26 -28
8z"/>
<path d="M3065 4260 c-3 -5 1 -10 9 -10 8 0 18 5 21 10 3 6 -1 10 -9 10 -8 0
-18 -4 -21 -10z"/>
<path d="M2772 4248 c-13 -17 -45 -129 -38 -135 3 -3 13 2 22 11 15 15 22 35
41 114 6 24 -8 30 -25 10z"/>
<path d="M3311 4188 c-25 -84 -12 -107 22 -36 25 55 31 98 13 98 -10 0 -22
-21 -35 -62z"/>
<path d="M2215 4207 c-4 -8 -5 -26 -3 -39 4 -23 4 -23 18 5 10 21 11 30 2 39
-8 8 -13 7 -17 -5z"/>
<path d="M2094 4186 c-9 -25 -57 -46 -104 -46 -41 0 -49 -7 -28 -28 18 -18 56
-15 92 8 33 20 64 65 53 76 -4 4 -9 -1 -13 -10z"/>
<path d="M1626 4155 c-11 -8 -37 -15 -57 -15 -21 0 -40 -4 -43 -9 -11 -17 24
-34 58 -28 48 8 114 68 74 67 -7 0 -22 -7 -32 -15z"/>
<path d="M5227 4388 c-29 -44 -48 -118 -37 -139 22 -41 59 -13 85 64 9 27 15
58 13 70 -4 31 -43 35 -61 5z"/>
<path d="M6040 4260 c0 -5 7 -10 15 -10 8 0 15 5 15 10 0 6 -7 10 -15 10 -8 0
-15 -4 -15 -10z"/>
<path d="M6310 4250 c-10 -19 -9 -21 12 -18 13 2 23 9 23 17 0 23 -23 24 -35
1z"/>
<path d="M7217 4213 c-23 -73 -28 -103 -18 -103 16 0 51 79 51 115 0 49 -16
43 -33 -12z"/>
<path d="M6934 4165 c-16 -40 -18 -55 -5 -55 13 0 41 47 41 70 0 31 -20 24
-36 -15z"/>
<path d="M6370 4150 c-8 -5 -32 -10 -52 -10 -21 0 -38 -4 -38 -8 0 -16 25 -32
51 -32 27 0 79 34 79 51 0 12 -21 11 -40 -1z"/>
<path d="M4087 4213 c-19 -54 -22 -83 -7 -83 12 0 52 89 48 109 -6 31 -25 19
-41 -26z"/>
<path d="M4393 4248 c-14 -17 -46 -129 -39 -135 10 -11 33 24 50 76 17 53 11
86 -11 59z"/>
<path d="M2956 3696 c-21 -51 -28 -93 -17 -100 13 -8 51 74 51 108 0 36 -17
32 -34 -8z"/>
<path d="M3516 3698 c-7 -18 -16 -48 -20 -66 -5 -28 -3 -33 12 -30 9 2 18 14
20 28 2 14 8 29 13 35 12 13 11 65 -2 65 -5 0 -16 -15 -23 -32z"/>
<path d="M5956 3721 c-18 -19 -21 -41 -7 -41 12 0 41 29 41 40 0 18 -18 19
-34 1z"/>
<path d="M5656 3683 c-9 -26 -16 -58 -16 -72 0 -25 0 -25 20 -6 19 19 43 109
32 120 -12 12 -21 2 -36 -42z"/>
<path d="M5920 3605 c0 -9 5 -15 11 -13 6 2 11 8 11 13 0 5 -5 11 -11 13 -6 2
-11 -4 -11 -13z"/>
<path d="M6480 3060 c-8 -5 -29 -10 -46 -10 -20 0 -39 -9 -57 -28 -23 -24 -27
-37 -27 -88 0 -37 6 -68 15 -80 8 -10 15 -36 15 -57 0 -20 4 -45 9 -55 6 -9
12 -28 15 -43 6 -28 72 -99 92 -99 30 0 44 -31 44 -100 0 -115 23 -193 70
-240 46 -45 74 -55 160 -55 82 0 88 2 127 33 61 48 84 92 91 168 4 60 8 68 39
92 61 48 78 104 48 162 -22 42 -53 60 -107 60 -38 0 -54 -6 -80 -29 -29 -26
-32 -34 -32 -86 0 -61 -4 -55 73 -117 27 -23 28 -83 2 -141 -64 -139 -249
-143 -322 -7 -15 27 -19 56 -19 132 0 105 1 107 60 136 49 24 89 87 90 140 0
47 -16 57 -26 15 -19 -74 -86 -133 -152 -133 -34 0 -49 7 -82 36 -22 20 -40
42 -40 49 0 7 -7 18 -15 25 -8 7 -15 27 -15 44 0 18 -7 41 -15 52 -16 22 -20
140 -5 164 6 10 32 17 72 20 55 4 63 8 63 25 0 22 -22 30 -45 15z"/>
<path d="M6611 3051 c-14 -26 -5 -31 60 -31 57 0 58 -1 76 -37 l18 -38 3 33
c4 41 -28 71 -75 72 -17 0 -35 5 -38 10 -10 16 -33 12 -44 -9z"/>
<path d="M6752 2917 c-14 -34 -16 -117 -2 -117 14 0 22 40 18 96 -3 48 -4 49
-16 21z"/>
<path d="M3762 2904 c-18 -12 -22 -25 -22 -68 0 -39 -4 -55 -15 -60 -21 -8
-19 -22 6 -47 21 -21 22 -29 16 -143 -5 -103 -10 -133 -36 -201 l-31 -80 0
-496 c0 -543 -2 -528 59 -574 22 -17 46 -20 183 -23 87 -3 187 -1 223 3 58 6
70 11 100 42 l35 36 0 511 0 511 -29 76 c-23 61 -30 98 -36 195 -7 113 -6 120
14 138 25 22 27 39 7 56 -10 7 -15 30 -14 61 0 77 -3 78 -237 79 -166 0 -204
-3 -223 -16z m370 -289 c6 -103 21 -175 58 -280 25 -71 20 -102 -17 -111 -32
-8 -52 3 -73 41 -27 48 -64 69 -121 68 -41 -1 -56 -6 -81 -29 -16 -16 -34 -39
-39 -51 -10 -26 -55 -41 -78 -26 -19 12 -19 99 -1 134 26 48 50 168 50 255 0
50 3 94 7 98 4 3 70 5 147 4 l141 -3 7 -100z m66 -1187 c17 -17 15 -73 -3
-108 -20 -38 -45 -42 -237 -38 -187 4 -198 9 -198 94 0 32 5 54 13 57 6 3 102
6 213 6 143 1 203 -2 212 -11z"/>
<path d="M1832 2804 c-51 -53 -90 -99 -86 -103 4 -3 9 0 11 7 3 6 11 12 19 12
8 0 14 7 14 15 0 8 7 15 15 15 8 0 15 7 15 15 0 8 7 15 15 15 8 0 15 7 15 15
0 8 7 15 15 15 8 0 15 7 15 15 0 8 5 15 10 15 6 0 19 9 30 20 20 20 26 40 13
40 -5 0 -50 -44 -101 -96z"/>
<path d="M5125 2860 c-12 -4 -27 -15 -34 -23 -11 -14 -9 -17 16 -23 30 -8 101
-53 122 -78 8 -9 26 -16 42 -16 31 0 39 -17 14 -26 -19 -8 -19 -29 1 -59 13
-19 16 -49 16 -127 -1 -56 1 -105 4 -110 7 -11 68 66 95 118 23 46 24 73 3 88
-15 11 -15 15 0 51 22 52 15 65 -35 65 -42 0 -52 21 -13 28 10 2 23 7 27 12
12 11 -75 79 -111 86 -28 6 -32 4 -40 -27 l-9 -34 -8 35 c-11 49 -38 62 -90
40z"/>
<path d="M4735 2824 c-13 -13 -18 -14 -31 -3 -27 23 -89 -9 -177 -91 -45 -41
-93 -83 -106 -92 -27 -19 -20 -38 14 -38 30 0 55 -10 55 -21 0 -5 -24 -9 -53
-9 -43 0 -58 -5 -75 -23 -36 -39 -24 -91 33 -139 26 -23 95 -24 95 -2 0 8 11
39 25 68 14 30 23 60 20 69 -4 10 2 17 19 21 13 3 39 18 56 33 39 33 130 151
130 169 0 8 10 14 23 14 28 0 72 35 62 49 -10 17 -72 13 -90 -5z"/>
<path d="M1883 2793 c-57 -55 -57 -57 -14 -102 22 -22 49 -41 60 -41 18 0 19
-2 7 -25 -8 -14 -33 -43 -56 -64 -30 -26 -39 -40 -30 -46 7 -4 23 5 41 24 29
33 49 34 49 3 0 -27 441 -462 469 -462 13 0 44 21 77 51 56 54 77 53 24 -1
-16 -17 -30 -36 -30 -43 0 -19 55 -57 83 -57 28 0 67 38 67 66 -1 22 -38 68
-62 77 -19 7 -25 37 -7 37 6 0 9 16 7 38 -3 35 -4 37 -37 34 -28 -2 -32 0 -22
12 6 7 8 21 5 30 -8 21 -51 14 -70 -12 -7 -9 -16 -14 -20 -10 -4 4 5 20 20 34
15 15 25 32 23 38 -5 15 -47 20 -47 7 0 -6 -7 -11 -17 -11 -15 0 -14 2 2 20 9
10 15 26 12 35 -10 24 -46 18 -72 -12 -13 -16 -27 -25 -31 -20 -4 4 5 20 19
35 28 29 35 56 17 67 -6 4 -17 2 -25 -5 -18 -15 -31 6 -15 25 9 11 7 16 -10
25 -19 10 -26 8 -51 -16 -37 -35 -48 -26 -14 11 15 15 25 34 23 43 -5 23 -37
27 -52 6 -9 -11 -15 -13 -20 -6 -3 6 1 15 10 20 9 5 14 17 12 28 -5 24 -45 21
-64 -4 -10 -13 -13 -14 -14 -3 0 8 7 23 16 32 15 17 15 20 0 44 -18 28 -51 33
-60 9 -3 -8 -10 -12 -16 -9 -15 9 -12 25 5 25 8 0 15 6 15 13 1 6 14 23 30 37
32 26 38 40 17 40 -7 0 -35 -25 -62 -55 -49 -56 -82 -72 -70 -36 4 14 -5 32
-31 60 -20 23 -42 41 -50 41 -7 0 -26 -12 -41 -27z"/>
<path d="M4947 2804 c-10 -11 -9 -52 3 -59 6 -3 10 -12 10 -18 0 -7 -15 5 -33
25 -34 38 -60 42 -96 14 -7 -5 -23 -15 -34 -21 -11 -5 -41 -35 -65 -65 -25
-30 -69 -82 -99 -114 -29 -32 -52 -64 -50 -70 2 -6 21 -11 43 -12 21 0 81 -5
133 -9 83 -7 91 -10 70 -21 -14 -7 -30 -9 -39 -4 -8 4 -64 5 -125 1 -105 -6
-110 -7 -124 -33 -13 -23 -14 -32 -2 -65 15 -42 55 -83 80 -83 9 0 26 -7 38
-15 19 -13 23 -13 46 5 14 11 29 30 33 42 5 16 8 18 15 7 5 -8 9 -26 9 -41 0
-26 3 -28 43 -28 24 0 48 5 54 11 8 8 15 5 24 -9 16 -22 70 -52 94 -52 12 0
13 4 6 18 -11 20 -10 152 0 152 4 0 10 -28 13 -62 7 -62 38 -124 57 -113 5 4
9 32 9 63 0 31 4 63 9 71 9 14 15 -6 24 -79 3 -24 37 -23 64 2 70 64 113 170
113 275 0 76 -13 102 -30 57 -17 -42 -29 -17 -32 66 -3 69 -5 75 -25 78 -30 4
-94 -46 -174 -135 -35 -40 -72 -73 -81 -73 -9 0 -20 -4 -23 -10 -3 -5 -14 -10
-23 -10 -14 1 -14 2 3 12 11 6 22 14 25 18 23 33 126 140 135 140 5 1 21 14
35 30 13 17 30 30 36 30 14 0 29 38 20 48 -25 24 -172 53 -189 36z"/>
<path d="M5364 2406 c-3 -9 -12 -16 -20 -16 -8 0 -14 -4 -14 -10 0 -5 -11 -10
-25 -10 -18 0 -26 -7 -31 -27 -17 -65 -87 -139 -166 -176 -42 -20 -168 -23
-186 -5 -21 21 -86 40 -169 49 -46 4 -91 13 -102 19 -11 5 -29 10 -41 10 -11
0 -32 7 -46 16 -32 21 -43 11 -18 -17 27 -30 89 -55 159 -63 94 -10 179 -29
195 -42 8 -6 39 -17 68 -24 63 -14 136 -1 193 35 39 25 109 104 109 123 0 7
20 32 45 58 25 25 45 48 45 51 0 3 7 11 17 18 11 8 13 14 4 19 -6 4 -14 0 -17
-8z"/>
<path d="M4345 2390 c-13 -21 142 -96 161 -77 13 13 -32 47 -62 47 -17 0 -37
6 -43 14 -14 17 -49 27 -56 16z"/>
<path d="M2630 2021 c0 -13 158 -171 171 -171 18 0 8 13 -75 96 -83 83 -96 93
-96 75z"/>
<path d="M4920 1971 c-25 -16 -57 -42 -71 -57 -32 -36 -89 -130 -89 -147 0 -7
-7 -22 -15 -33 -8 -10 -15 -35 -15 -54 0 -19 -5 -55 -11 -80 -12 -52 3 -165
29 -220 45 -96 114 -152 209 -169 112 -21 218 16 279 96 67 88 69 97 68 243 0
132 -1 136 -34 205 -72 150 -173 245 -260 245 -32 0 -58 -9 -90 -29z"/>
<path d="M4556 1832 c-103 -60 -176 -206 -176 -350 1 -143 72 -246 189 -271
65 -14 146 -1 185 30 l25 20 -19 32 c-52 89 -74 165 -73 257 1 63 17 167 29
185 24 34 17 62 -23 90 -44 29 -95 32 -137 7z"/>
</g>
</svg>
